<?xml version="1.0" standalone="no"?>
<!DOCTYPE svg PUBLIC "-//W3C//DTD SVG 20010904//EN"
 "http://www.w3.org/TR/2001/REC-SVG-20010904/DTD/svg10.dtd">
<svg version="1.0" xmlns="http://www.w3.org/2000/svg"
 width="427.000000pt" height="512.000000pt" viewBox="0 0 427.000000 512.000000"
 preserveAspectRatio="xMidYMid meet">
<metadata>
Created by potrace 1.16, written by Peter Selinger 2001-2019
</metadata>
<g transform="translate(0.000000,512.000000) scale(0.100000,-0.100000)"
fill="#000000" stroke="none">
<path d="M0 3734 l0 -1385 23 6 c12 4 37 16 56 27 19 10 53 26 75 34 39 13 42
13 62 -9 11 -13 48 -32 82 -42 58 -18 81 -35 47 -35 -8 0 -15 -9 -15 -19 0
-26 -15 -34 -47 -26 -20 5 -24 11 -20 31 3 16 -1 28 -9 31 -24 9 -32 -6 -24
-42 5 -24 4 -38 -5 -45 -15 -13 -28 1 -20 22 7 19 -7 36 -38 43 -29 8 -39 -8
-11 -19 12 -5 14 -14 9 -38 -9 -42 -7 -40 -49 -33 -21 4 -36 13 -36 21 0 20
-17 17 -24 -3 -5 -11 1 -23 16 -35 l23 -18 -27 0 c-15 0 -30 -5 -33 -11 -5 -6
-12 -4 -21 8 -11 15 -13 -149 -14 -1089 l0 -1108 45 0 45 0 0 39 c0 21 6 43
12 48 24 18 137 62 142 55 2 -4 7 -26 11 -48 8 -52 51 -97 89 -92 l26 3 -36
38 c-19 20 -30 37 -23 37 7 0 5 8 -7 22 -16 18 -17 21 -2 15 14 -5 16 -1 12
29 -4 33 -3 34 17 24 11 -7 26 -25 34 -43 l13 -30 7 31 c3 18 12 32 20 32 21
0 89 -31 110 -50 11 -11 29 -17 40 -15 11 2 23 4 28 4 4 1 7 5 7 10 0 5 -9 7
-20 4 -16 -4 -20 0 -20 22 0 23 2 26 15 15 18 -15 19 -7 3 20 -11 17 -10 22 0
29 11 7 11 9 -2 14 -18 7 -22 42 -6 52 6 4 8 21 4 41 -5 29 -3 34 12 35 17 0
17 2 -4 16 -24 17 -30 35 -8 27 8 -3 17 -1 21 5 3 6 18 11 32 11 22 0 25 -3
20 -27 l-5 -27 17 23 c15 20 19 21 30 7 11 -13 11 -19 0 -33 -13 -15 -11 -16
12 -10 37 9 56 -14 37 -42 -18 -26 -11 -81 9 -81 12 0 14 -8 9 -34 -8 -44 11
-61 59 -52 27 5 37 3 41 -9 3 -8 12 -15 20 -15 8 0 14 -4 14 -9 0 -5 3 -16 6
-25 4 -11 0 -16 -14 -16 -12 0 -24 -5 -28 -12 -5 -8 -2 -9 10 -5 10 4 26 7 37
7 13 0 19 7 19 23 0 39 11 38 40 -1 19 -26 24 -41 17 -49 -7 -10 91 -13 487
-13 l496 0 -3 175 c-1 96 1 175 6 175 4 0 7 -8 7 -17 0 -29 19 -244 25 -290 4
-24 10 -43 15 -43 15 0 65 54 65 69 0 22 25 25 26 4 1 -10 3 -25 4 -33 1 -8 3
-20 4 -26 1 -8 75 -12 254 -13 l253 -2 12 46 c14 54 32 51 32 -6 l0 -39 115 0
115 0 0 105 0 105 -46 0 c-32 0 -44 4 -41 13 2 7 20 12 43 12 l39 0 5 110 5
110 463 3 c428 2 463 1 469 -15 4 -9 1 -19 -5 -21 -7 -2 -12 -8 -12 -13 0 -6
4 -7 10 -4 6 4 9 -34 8 -107 -1 -91 -3 -101 -7 -53 l-6 60 -9 -40 c-5 -22 -10
-58 -12 -80 -2 -22 -13 -69 -24 -104 -23 -72 -24 -81 -10 -81 6 0 10 7 10 16
0 16 30 114 35 114 2 0 3 -24 2 -54 -1 -42 -4 -53 -15 -48 -10 3 -13 0 -10 -9
3 -8 12 -15 21 -17 14 -3 17 5 17 42 0 33 4 46 14 46 8 0 44 13 81 30 37 16
68 30 70 30 2 0 7 -21 11 -47 8 -59 45 -103 86 -103 15 0 28 2 28 4 0 2 -13
18 -30 36 -16 18 -27 36 -24 41 3 6 0 17 -7 25 -10 12 -9 13 5 8 19 -7 21 7 4
24 -9 9 -9 12 3 12 12 0 12 2 -1 10 -8 5 -12 12 -9 15 10 10 38 -6 44 -25 8
-27 33 -32 40 -9 4 10 12 19 18 19 19 -1 94 -37 101 -49 4 -6 11 -11 17 -11 5
0 9 948 9 2510 l0 2510 -2135 0 -2135 0 0 -1386z m2115 1116 c23 -9 25 -13 15
-25 -16 -19 -50 -19 -50 0 0 8 -7 15 -16 15 -13 0 -13 -2 2 -17 17 -17 17 -18
-2 -21 -10 -2 -23 -8 -28 -13 -6 -5 -23 -9 -39 -9 -16 0 -40 -9 -54 -20 -30
-23 -29 -23 15 -11 22 7 41 6 57 -1 17 -7 29 -8 37 -1 26 20 66 24 76 7 6 -11
11 -13 16 -5 15 24 43 11 53 -24 10 -31 9 -35 -7 -35 -10 0 -24 9 -31 21 -16
24 -49 17 -49 -11 0 -25 30 -81 41 -75 5 4 6 -1 2 -11 -5 -14 -3 -15 16 -5 19
11 20 14 6 27 -16 16 -21 44 -7 44 22 0 87 -24 99 -36 54 -54 30 -176 -49
-251 -83 -80 -206 -96 -309 -41 -248 131 -161 506 118 508 34 0 74 -5 88 -10z
m-817 -46 c26 -18 31 -71 7 -80 -8 -4 -15 -10 -15 -15 0 -5 7 -9 15 -9 13 0
15 -22 15 -140 l0 -140 -60 0 -60 0 0 139 c0 103 3 140 13 144 9 3 7 9 -5 24
-23 26 -23 48 2 73 24 24 57 26 88 4z m-750 -196 l2 -188 -65 0 -65 0 0 190 0
191 63 -3 62 -3 3 -187z m622 3 l0 -188 -115 -7 c-78 -5 -121 -3 -136 4 -11 7
-32 35 -45 63 l-24 52 1 -45 c0 -25 0 -51 0 -57 -1 -9 -20 -13 -61 -13 l-60 0
0 90 c0 73 -3 90 -15 90 -12 0 -15 -17 -15 -90 l0 -90 -65 0 -66 0 3 138 3
137 65 2 c36 2 86 6 112 9 41 5 50 3 72 -20 17 -16 26 -36 26 -56 0 -40 13
-38 29 6 17 48 63 75 121 72 l45 -2 3 47 3 47 60 0 59 0 0 -189z m1410 104
c17 -86 20 -84 41 23 l12 62 57 0 57 0 13 -75 c12 -69 30 -111 30 -69 0 10 5
46 11 81 l11 63 57 0 c32 0 60 -2 63 -6 5 -4 -7 -69 -58 -301 l-15 -73 -68 0
-67 0 -13 80 c-8 44 -17 80 -20 80 -4 0 -15 -36 -25 -80 l-17 -81 -66 3 -67 3
-32 155 c-18 85 -36 170 -40 188 l-6 33 63 -3 64 -3 15 -80z m985 -105 l0
-185 -62 -3 -63 -3 -1 113 c-1 62 -4 103 -6 91 -3 -15 -13 -23 -31 -25 -26 -3
-27 -5 -32 -88 l-5 -85 -62 -3 -63 -3 0 141 0 142 58 -3 c31 -1 65 1 75 6 9 4
28 4 42 1 24 -6 25 -5 25 44 l0 51 63 -3 62 -3 0 -185z m315 2 l0 -189 -111
-7 c-127 -7 -150 0 -175 59 -21 50 -18 133 6 172 29 49 63 66 115 61 l45 -6 0
49 0 49 60 0 60 0 0 -188z m-2313 81 c41 -19 63 -62 63 -123 l0 -40 -76 0
c-56 0 -75 -3 -71 -12 3 -9 22 -12 61 -10 31 1 56 1 56 0 0 -2 4 -18 10 -36 9
-32 7 -34 -25 -48 -50 -20 -143 -18 -181 5 -60 36 -82 131 -46 201 36 73 129
101 209 63z m1600 -9 c38 -28 55 -67 55 -125 0 -95 -59 -149 -162 -149 -67 0
-110 23 -133 73 -36 76 -13 165 55 208 44 27 144 23 185 -7z m15 -592 c8 -6
24 -9 36 -5 16 4 22 1 22 -11 0 -9 11 -27 26 -39 34 -30 47 -93 38 -194 -4
-59 -3 -83 5 -83 6 0 11 14 11 31 0 16 4 28 9 25 12 -8 61 -102 61 -118 0 -22
43 -58 70 -58 34 0 63 -33 79 -88 13 -46 13 -47 -36 -100 -16 -16 -17 -109 -3
-212 5 -41 14 -113 20 -160 6 -47 15 -107 21 -135 23 -112 23 -112 -5 -130
-21 -14 -37 -16 -79 -10 -82 12 -190 11 -194 -1 -8 -23 43 -77 90 -95 27 -9
59 -29 72 -43 13 -14 34 -26 45 -26 12 0 30 -5 41 -11 16 -8 18 -13 8 -25 -12
-15 -52 -17 -84 -5 -12 5 -40 2 -70 -7 -27 -8 -99 -18 -160 -21 l-109 -6 -10
-32 c-11 -40 -30 -42 -81 -7 -21 14 -44 23 -51 20 -17 -6 -34 23 -34 58 0 35
-20 75 -41 81 -13 4 -18 16 -17 45 0 25 -7 48 -21 66 -11 15 -21 35 -21 44 0
10 -7 24 -16 31 -9 7 -29 38 -44 69 -48 94 -79 152 -90 165 -5 6 -7 15 -3 18
3 4 -1 9 -9 12 -10 4 -14 14 -11 26 3 11 -2 47 -12 81 -22 78 -25 221 -6 268
8 19 34 56 57 82 41 44 47 57 57 121 7 42 -31 141 -61 160 -11 7 -11 12 1 25
8 10 17 35 20 57 5 30 15 47 42 68 19 16 35 38 35 48 0 23 23 25 40 4 16 -19
24 -19 63 0 18 8 50 18 71 23 57 11 212 8 228 -6z m-2926 -266 c-3 -28 -11
-94 -17 -146 -5 -52 -19 -119 -30 -148 -23 -64 -24 -72 -3 -72 20 0 14 -41
-20 -127 -17 -43 -21 -65 -14 -77 6 -10 8 -29 5 -43 -4 -21 -1 -24 17 -20 11
2 29 8 39 12 13 5 17 2 17 -14 0 -12 4 -21 10 -21 5 0 12 -16 16 -35 7 -40 10
-41 36 -18 12 11 18 31 19 62 l1 46 8 -35 c6 -25 4 -44 -7 -67 -11 -25 -13
-48 -8 -95 7 -59 6 -62 -10 -48 -9 8 -21 23 -26 35 -8 20 -8 20 -15 -2 -8 -28
-34 -30 -34 -3 0 23 -15 27 -24 5 -9 -25 -48 -2 -62 36 -7 19 -13 49 -13 67
-1 18 -8 56 -17 83 -20 59 -15 245 6 292 14 29 5 51 -10 27 -23 -36 5 74 33
129 l12 24 6 -29 c5 -26 7 -27 14 -9 5 11 17 31 27 44 20 26 24 66 7 77 -6 3
-15 0 -20 -7 -11 -18 -43 0 -47 27 -3 17 -1 16 15 -4 21 -26 33 -20 33 15 0
24 15 31 23 11 3 -7 6 8 6 33 1 48 7 62 24 52 5 -3 7 -27 3 -57z m1256 -38
c-1 -52 -9 -92 -27 -137 -14 -36 -25 -70 -25 -77 0 -19 -66 -70 -110 -84 -48
-16 -97 0 -102 33 -5 37 4 77 17 77 19 0 38 28 39 57 1 22 12 34 59 62 56 32
107 92 107 124 0 7 5 18 12 25 22 22 32 -5 30 -80z m2197 77 c32 -16 84 -20
119 -10 14 5 22 3 22 -4 0 -6 9 -11 19 -11 11 0 22 -3 25 -8 2 -4 6 -50 7
-101 l3 -95 -49 -11 c-28 -7 -84 -29 -125 -49 -71 -34 -119 -44 -154 -30 -23
9 -20 24 4 24 32 0 24 35 -15 65 -20 14 -47 44 -62 66 l-25 39 17 52 c26 80
36 88 117 88 41 0 80 -6 97 -15z m-1298 -290 c24 -23 77 -133 81 -169 3 -25
-2 -30 -31 -40 -21 -8 -38 -22 -43 -37 -25 -65 -12 -113 19 -69 21 30 83 56
93 39 5 -7 18 -55 30 -108 12 -53 28 -107 35 -121 7 -14 16 -46 19 -72 6 -41
4 -48 -16 -62 -12 -9 -34 -16 -48 -16 -26 0 -120 53 -120 67 0 5 -22 39 -49
76 -53 72 -53 72 -91 289 -20 110 -20 145 -1 133 5 -2 11 -19 15 -37 l6 -32
20 22 c25 27 47 27 80 2 27 -21 50 -26 50 -10 0 16 -97 87 -135 100 -39 13
-43 24 -18 53 21 22 74 18 104 -8z m-1269 -105 c9 -83 17 -97 46 -81 23 12 32
6 32 -23 0 -12 7 -30 15 -40 8 -11 15 -28 15 -38 0 -30 29 -34 48 -7 29 43 93
99 112 99 11 0 25 -10 31 -22 15 -27 39 -47 58 -48 8 0 19 -8 26 -17 11 -14
29 -17 103 -16 87 1 91 0 96 -23 4 -13 2 -42 -3 -65 -13 -59 -1 -85 27 -57 20
20 35 -12 16 -33 -7 -8 -14 -27 -14 -41 0 -14 -6 -46 -14 -71 -14 -47 -5 -75
16 -46 23 33 -4 -58 -37 -122 -31 -61 -35 -78 -35 -145 l0 -77 -49 7 c-73 10
-118 -15 -197 -108 -87 -102 -111 -112 -279 -119 l-131 -5 -45 33 c-35 25 -51
45 -65 84 -10 28 -24 51 -31 51 -17 0 -16 -11 3 -70 17 -54 8 -106 -23 -132
-13 -11 -18 -9 -31 10 -17 26 -72 32 -72 7 0 -9 -9 -15 -22 -15 -13 0 -47 -3
-75 -6 -45 -6 -53 -4 -53 10 0 31 -44 19 -64 -18 -24 -45 -14 -61 24 -41 16 8
36 15 45 15 20 0 100 -31 180 -71 34 -16 64 -29 67 -29 3 0 1 16 -5 35 -11 38
-4 56 15 37 22 -22 36 -12 59 38 12 28 24 50 25 50 15 0 91 -86 114 -129 34
-61 36 -76 16 -96 -12 -12 -11 -21 2 -59 16 -44 16 -44 72 -49 30 -3 83 -10
118 -16 34 -6 104 -9 155 -6 l92 5 -33 -20 c-18 -11 -37 -20 -42 -20 -6 0 -10
-8 -10 -17 1 -15 89 -88 124 -102 20 -8 55 -57 56 -78 0 -29 16 -32 75 -16 79
23 136 33 146 27 13 -8 11 -40 -3 -51 -7 -6 -58 -20 -113 -32 -55 -12 -113
-26 -130 -31 -45 -14 -165 -41 -207 -47 -30 -4 -38 -2 -38 10 0 34 40 54 143
73 61 11 57 28 -22 104 -59 57 -85 74 -154 100 -86 34 -171 47 -230 36 l-34
-6 5 -48 c3 -26 5 -62 6 -79 1 -34 6 -39 21 -24 6 6 34 13 63 17 l52 7 0 -47
c0 -38 -3 -46 -18 -46 -10 0 -27 -7 -38 -15 -18 -14 -15 -15 29 -9 49 7 56 0
34 -29 -8 -13 -31 -19 -77 -22 -35 -2 -66 -9 -68 -14 -2 -6 -14 -11 -27 -11
-22 0 -24 5 -27 53 l-3 52 -15 -60 c-14 -53 -19 -60 -42 -63 -15 -2 -32 -10
-39 -18 -11 -14 -8 -15 27 -9 21 4 91 20 154 36 63 15 119 24 123 20 5 -5 7
-19 5 -32 -2 -16 -12 -25 -33 -30 -16 -4 -70 -17 -120 -29 -49 -12 -119 -28
-155 -36 -116 -26 -116 -26 -124 -102 -11 -120 -8 -154 12 -150 14 3 19 21 28
96 13 100 24 122 60 122 12 0 25 4 28 8 2 4 17 7 33 6 15 -1 34 -3 41 -3 9 -1
12 -14 10 -43 -3 -36 -7 -43 -30 -49 -21 -5 -30 -3 -37 8 -17 31 -28 3 -34
-84 -5 -67 -11 -91 -24 -100 -25 -19 -53 -16 -53 5 -1 15 -2 15 -18 -3 -19
-22 -64 -45 -89 -45 -14 0 -15 15 -9 141 l7 142 -33 -8 c-18 -4 -43 -9 -56
-12 -21 -5 -23 -3 -20 28 3 32 6 34 57 46 62 13 71 23 71 79 0 38 2 42 31 48
37 7 49 1 49 -25 0 -21 18 -26 25 -6 2 6 6 41 8 76 l5 63 -27 -5 c-18 -4 -39
1 -58 13 l-31 18 -41 -39 c-23 -22 -47 -55 -55 -73 -11 -27 -21 -35 -51 -40
-20 -4 -39 -5 -41 -3 -2 2 3 23 11 47 8 23 15 46 15 49 0 4 -19 5 -42 1 -43
-6 -53 -4 -135 20 -37 11 -51 11 -103 -5 -49 -15 -67 -16 -97 -7 -25 8 -42 8
-56 1 -27 -15 -39 0 -49 63 -25 146 -19 168 50 206 31 18 45 32 49 53 3 16 10
32 14 35 5 3 9 16 9 28 0 16 7 25 23 29 75 18 257 104 257 121 0 6 -7 36 -15
66 -18 69 -19 103 -1 138 14 29 10 102 -6 102 -6 0 -8 -14 -5 -35 3 -19 1 -37
-4 -40 -5 -4 -9 -18 -9 -33 0 -38 -17 -15 -25 33 -5 34 -2 44 14 60 12 10 21
27 21 37 0 10 11 29 24 41 17 16 25 38 30 77 11 88 17 111 28 108 6 -2 12 -22
14 -43 3 -22 6 -56 9 -75 2 -19 4 -39 4 -43 1 -5 11 -5 24 -1 12 4 40 10 62
14 36 5 40 8 38 33 -1 15 -22 58 -46 95 -47 72 -73 149 -91 277 -9 63 -15 79
-27 77 -9 -1 -23 6 -33 17 -14 15 -15 23 -5 45 16 35 27 33 25 -5 0 -18 5 -34
12 -36 8 -3 12 10 13 44 1 26 5 59 9 73 8 25 8 25 9 2 2 -35 18 -17 26 28 5
27 2 49 -9 70 -18 37 -6 76 28 86 12 4 27 15 34 25 14 20 42 26 42 9 0 -5 -7
-13 -15 -17 -8 -5 -17 -23 -21 -40 -6 -28 -4 -30 18 -26 15 3 31 -2 41 -12 10
-10 25 -14 36 -10 16 5 18 2 14 -15 -6 -24 22 -29 31 -5 7 19 46 20 46 1 0
-17 37 -46 58 -46 8 0 27 14 44 32 25 27 32 30 49 20 55 -35 126 12 98 64 -7
13 -20 24 -30 24 -34 0 -29 19 13 49 63 44 72 39 80 -49z m2538 -235 c27 -13
51 -29 55 -35 3 -6 23 -17 43 -26 46 -19 99 -11 147 22 70 47 85 25 44 -67
-16 -35 -29 -70 -29 -76 0 -7 -4 -13 -9 -13 -5 0 -12 -9 -16 -20 -3 -10 -26
-46 -50 -80 -27 -36 -47 -75 -51 -99 -4 -22 -15 -48 -26 -58 -20 -17 -21 -17
-50 17 -44 51 -63 101 -88 230 -13 72 -31 131 -47 158 -19 34 -22 46 -13 58
17 20 33 18 90 -11z m-3254 -338 c3 -18 12 -43 19 -57 18 -34 0 -212 -25 -253
l-18 -29 -15 28 -15 28 -7 -32 c-21 -96 -41 13 -24 133 6 44 14 105 17 135 5
39 11 55 22 55 10 0 14 9 12 24 -4 36 25 8 34 -32z m2384 -402 c55 -113 103
-217 106 -230 5 -22 3 -25 -21 -25 -60 0 -136 115 -164 246 -22 100 -36 214
-27 214 3 0 51 -92 106 -205z m750 9 c0 -8 -4 -14 -10 -14 -5 0 -10 -7 -10
-15 0 -8 -9 -19 -20 -25 -28 -15 -300 -16 -328 -1 -11 6 -30 11 -41 11 -29 0
-28 38 2 49 12 5 109 9 215 9 161 1 192 -2 192 -14z m-370 -146 c18 -13 52
-19 125 -23 135 -7 198 -18 232 -41 15 -10 33 -20 38 -20 6 -1 14 -2 18 -3 4
0 3 -10 -3 -21 -12 -23 -103 -70 -136 -70 -13 0 -44 -5 -69 -12 -52 -14 -130
1 -180 34 -51 34 -94 99 -88 133 10 62 9 62 63 23z m763 -559 l37 -10 0 -61
c0 -58 -1 -60 -22 -53 -44 15 -80 9 -99 -16 -24 -30 -23 -58 0 -88 17 -22 24
-23 70 -18 l51 6 0 -48 c0 -63 -16 -76 -95 -76 -52 0 -67 4 -98 28 -51 39 -69
78 -68 148 0 44 7 68 25 96 57 90 113 116 199 92z m-236 -61 c-16 -176 -30
-285 -37 -298 -5 -10 -22 -15 -51 -15 -34 0 -43 3 -40 15 2 8 10 87 17 175 7
88 13 161 13 162 2 4 39 11 69 12 l34 1 -5 -52z m-126 -14 c-4 -58 -7 -64 -30
-64 -19 0 -21 -13 -38 -185 -3 -33 -10 -63 -17 -67 -6 -4 -29 -8 -50 -8 l-39
0 7 125 c7 122 6 125 -14 125 -17 0 -20 6 -20 44 0 25 6 48 14 55 12 11 156
31 181 26 6 -1 8 -23 6 -51z m-2259 -44 c-2 -47 -8 -102 -13 -123 -15 -58 1
-66 27 -15 19 38 29 47 60 52 20 4 39 5 42 1 3 -3 -11 -39 -32 -80 l-38 -75
74 -85 c46 -54 80 -85 93 -85 11 0 65 11 120 25 55 14 122 28 149 31 l49 7
-18 -30 c-19 -33 -44 -43 -155 -68 -36 -7 -83 -18 -105 -24 -78 -20 -84 -18
-173 84 -45 52 -87 95 -92 95 -5 0 -13 -18 -16 -39 -5 -33 -11 -40 -37 -45
-16 -3 -32 -4 -35 -1 -4 4 12 262 24 388 5 47 10 60 28 67 46 19 51 11 48 -80z
m978 70 c8 -1 31 2 50 6 l35 7 -22 -25 c-13 -13 -23 -29 -23 -35 0 -6 -7 -16
-15 -23 -8 -6 -26 -33 -40 -58 -28 -49 -25 -57 27 -68 47 -11 51 -26 18 -78
-17 -25 -39 -50 -51 -54 -19 -7 -19 -9 -5 -21 18 -15 12 -33 -8 -25 -25 10
-26 -13 -1 -24 35 -16 36 -69 1 -78 -29 -7 -46 1 -46 22 0 8 11 14 28 15 l27
1 -27 9 c-35 13 -44 43 -24 74 16 25 16 25 -19 25 -31 0 -35 3 -35 25 0 25
-25 45 -57 45 -48 1 -46 14 19 144 l63 127 45 -6 c25 -3 52 -5 60 -5z m1065
-56 l0 -49 -38 0 c-54 0 -89 -41 -85 -99 3 -40 4 -41 38 -40 19 0 44 2 55 5
18 4 20 -1 17 -56 -1 -33 -8 -63 -15 -67 -7 -4 -40 -8 -73 -8 -59 0 -63 2 -97
39 -39 43 -52 84 -43 139 3 20 3 30 -1 22 -3 -8 -17 -32 -30 -54 l-25 -38 32
-51 c36 -58 32 -67 -36 -77 -45 -7 -46 -7 -60 26 -17 41 -34 44 -34 7 0 -16
-4 -33 -8 -40 -11 -17 -58 -33 -96 -33 -46 0 -52 -12 -14 -30 18 -8 43 -31 56
-50 13 -19 27 -36 31 -38 10 -3 21 33 21 69 0 34 16 47 65 51 l39 3 20 -62
c11 -35 24 -63 27 -63 8 0 21 45 24 80 1 14 3 35 3 46 2 28 59 42 80 20 12
-11 12 -23 4 -63 -34 -149 -41 -191 -36 -215 7 -31 -21 -51 -63 -46 -27 3 -30
7 -59 76 -9 23 -21 42 -25 42 -8 0 -15 -31 -21 -90 -3 -22 -8 -25 -47 -28
l-44 -3 6 73 6 73 -17 -35 c-35 -74 -91 -120 -145 -120 -32 0 -76 36 -92 74
-15 34 -22 25 -27 -34 -3 -29 -7 -35 -28 -36 -41 -2 -49 5 -43 41 7 44 -11 52
-37 15 -27 -38 -38 -38 -51 0 -14 39 -25 38 -33 -2 -3 -17 -11 -37 -17 -45
-13 -15 -55 -18 -64 -4 -3 6 12 63 34 128 38 113 41 118 69 121 25 3 30 -1 38
-30 12 -42 27 -42 56 2 16 23 33 36 51 38 27 3 27 3 27 -56 0 -32 3 -62 6 -65
4 -4 17 15 29 41 23 49 59 85 98 99 20 6 20 7 -8 13 -22 4 -31 12 -33 28 -3
20 -8 23 -40 20 -27 -2 -40 -9 -47 -25 -7 -16 -19 -22 -53 -25 -24 -2 -46 0
-48 4 -3 5 8 32 25 61 17 28 50 91 73 139 38 78 47 89 78 98 19 5 41 10 48 10
18 0 32 -43 46 -134 12 -80 29 -107 39 -64 4 13 9 61 13 108 8 98 17 130 39
130 8 0 42 10 76 21 52 18 65 19 85 8 13 -7 28 -26 32 -43 11 -40 27 -43 41
-8 28 67 134 131 186 112 16 -6 20 -16 20 -56z m-1540 -26 c-9 -41 -5 -37 -60
-51 -59 -16 -55 -33 8 -30 l47 2 0 -63 c0 -47 -4 -67 -17 -78 -21 -19 -127
-42 -150 -34 -9 4 -24 -1 -34 -10 -18 -16 -78 -34 -129 -37 -39 -3 -47 27 -37
135 5 51 13 97 17 102 7 7 132 45 153 46 10 0 9 -104 -3 -134 -5 -14 -17 -26
-25 -26 -9 0 -32 -7 -52 -15 -27 -12 -34 -18 -25 -27 8 -8 36 -6 109 11 54 12
108 27 121 32 27 11 24 36 -4 30 -10 -2 -35 -4 -54 -5 l-35 -1 -3 55 c-2 48 0
59 22 79 13 12 48 29 78 36 81 20 81 20 73 -17z m-1139 -71 c11 -29 -14 -64
-48 -70 -72 -13 -148 -33 -157 -42 -13 -15 -21 -105 -8 -105 5 0 46 7 90 16
75 15 81 15 93 0 15 -22 7 -170 -12 -208 -18 -35 -26 -39 -114 -59 -41 -10
-93 -22 -115 -28 -60 -16 -94 -13 -133 11 l-35 22 34 11 c19 7 63 17 99 24 36
7 72 16 80 19 8 3 35 11 60 16 l45 11 3 53 3 54 -33 -7 c-18 -4 -55 -14 -81
-22 -44 -14 -49 -14 -67 2 -12 10 -20 31 -20 48 0 50 21 161 35 183 13 21 60
38 180 67 79 19 95 20 101 4z m517 -64 c6 -11 -13 -203 -23 -228 -5 -14 -27
-25 -76 -38 -62 -16 -70 -16 -80 -2 -16 21 -6 193 12 222 20 32 154 68 167 46z
m717 -100 c-1 -5 -12 -21 -25 -38 -21 -25 -39 -33 -107 -48 -73 -15 -135 -30
-228 -52 -19 -5 -31 -1 -45 14 -11 13 -15 25 -9 30 10 9 223 61 251 61 11 0
23 4 29 9 5 6 32 14 59 19 66 13 75 13 75 5z m2114 -37 c45 -19 49 -27 31 -70
-16 -38 -24 -43 -42 -25 -13 13 -43 6 -43 -9 0 -5 14 -15 31 -22 95 -40 88
-184 -11 -224 -37 -15 -42 -14 -85 4 -50 21 -55 37 -29 89 15 30 17 31 33 17
22 -20 61 -21 61 -1 0 8 -15 21 -34 29 -46 19 -59 47 -54 112 5 55 25 89 63
105 29 11 42 11 79 -5z m-274 -5 c0 -5 5 -22 11 -38 l11 -28 13 35 c11 33 15
35 58 38 58 4 59 -1 11 -103 -20 -42 -40 -104 -45 -139 -13 -92 -24 -116 -53
-116 -51 0 -55 6 -49 84 5 61 1 86 -23 164 -16 51 -32 92 -36 92 -4 0 -8 -17
-10 -37 -3 -35 -6 -39 -41 -47 -39 -10 -46 -33 -9 -28 27 4 36 -17 28 -63 -6
-31 -10 -35 -37 -35 -47 0 -30 -24 19 -28 39 -3 42 -5 42 -33 0 -61 -12 -69
-105 -69 l-85 0 0 43 c0 23 4 60 9 82 5 22 12 74 16 115 3 42 10 82 15 90 14
22 260 42 260 21z m-298 -52 c-6 -13 -26 -48 -45 -78 l-36 -54 20 -49 c11 -27
26 -62 34 -78 19 -37 2 -53 -52 -48 -33 3 -39 7 -49 38 -14 44 -34 51 -34 13
0 -36 -16 -53 -49 -53 -50 0 -57 12 -44 77 7 32 17 96 24 143 7 47 17 91 22
98 5 6 25 12 43 12 33 0 34 -1 34 -42 l0 -43 20 25 c11 14 20 30 20 37 0 15
15 24 54 33 39 9 49 0 38 -31z m-2093 -51 c26 -27 20 -35 -32 -48 -23 -6 -58
-15 -77 -20 -19 -5 -84 -21 -145 -35 -60 -14 -123 -30 -140 -35 -16 -5 -57
-14 -90 -20 -33 -6 -69 -15 -80 -20 -11 -5 -51 -16 -90 -24 -64 -14 -104 -23
-233 -56 -39 -9 -48 -8 -80 12 -22 14 -30 23 -21 26 8 2 23 7 34 11 11 5 52
15 90 24 39 9 120 28 180 42 61 14 157 37 215 51 58 13 121 29 140 34 35 10
52 14 209 50 46 11 86 22 89 25 8 8 10 7 31 -17z m867 -49 c24 -6 47 -16 50
-20 3 -5 -18 -36 -48 -68 -29 -33 -100 -111 -157 -175 -57 -64 -106 -114 -109
-112 -4 5 2 16 91 171 26 44 47 83 47 87 0 4 -27 15 -60 24 -33 9 -60 21 -60
26 0 5 12 25 26 44 26 33 28 34 101 34 41 0 94 -5 119 -11z m-795 -31 c14 -25
1 -34 -56 -43 -22 -4 -58 -12 -80 -20 -22 -7 -62 -17 -90 -23 -46 -10 -134
-31 -280 -68 -33 -8 -81 -20 -108 -26 -61 -14 -52 -27 61 -79 131 -62 276 -65
424 -9 76 28 176 107 223 175 37 54 77 85 110 85 8 0 15 -5 15 -11 0 -27 -69
-128 -129 -189 -73 -74 -143 -117 -243 -150 -60 -20 -82 -22 -210 -18 -135 4
-147 6 -210 35 -37 18 -70 27 -73 22 -11 -16 -23 -9 -18 10 3 13 -3 23 -19 31
-12 7 -34 23 -48 36 -24 22 -28 22 -97 12 -55 -9 -79 -9 -99 0 -31 15 -27 36
7 40 13 2 47 9 74 17 28 8 136 35 240 60 105 25 206 50 225 56 19 5 64 16 100
24 147 32 196 44 220 53 31 11 47 6 61 -20z m673 -890 c23 -2 32 -11 45 -46
10 -24 23 -47 30 -51 8 -5 10 -18 5 -34 -6 -26 -24 -38 -24 -17 0 7 -6 7 -19
0 -11 -5 -33 -10 -48 -10 -26 0 -31 6 -46 48 -10 27 -15 55 -13 63 23 63 28
72 34 62 4 -6 20 -13 36 -15z"/>
<path d="M1903 4683 c-29 -15 -53 -49 -53 -76 1 -24 39 -58 62 -56 13 1 30 1
39 1 19 -2 54 -85 45 -108 -6 -17 22 -74 37 -74 21 0 45 22 51 45 4 14 11 25
17 25 6 0 8 9 4 20 -7 21 8 52 41 85 17 17 17 17 -4 11 -18 -6 -22 -3 -22 14
0 12 -9 33 -20 47 -11 14 -20 33 -20 42 0 14 -2 14 -11 1 -8 -11 -12 -12 -16
-2 -2 6 -13 12 -23 12 -10 0 -21 -6 -23 -12 -4 -10 -6 -10 -6 0 -1 6 -8 12
-16 12 -9 0 -18 7 -21 15 -8 19 -20 18 -61 -2z"/>
<path d="M2868 3542 c-59 -18 -94 -42 -103 -73 -4 -11 -12 -19 -19 -19 -21 0
-6 -59 18 -72 11 -6 32 -23 46 -38 30 -33 95 -48 104 -24 4 10 13 13 26 9 14
-5 20 -2 20 9 0 22 4 20 42 -14 45 -41 92 -42 116 0 20 35 26 36 58 11 20 -16
30 -17 62 -9 20 5 53 13 72 16 20 4 39 16 45 27 5 11 20 35 33 52 24 33 29 68
11 79 -6 3 -16 1 -22 -5 -15 -15 -50 -14 -89 3 -140 59 -315 79 -420 48z"/>
<path d="M3157 3274 c-3 -4 -23 -9 -44 -11 -21 -2 -40 -8 -43 -13 -3 -5 -30
-10 -60 -12 l-55 -3 27 -27 c23 -24 35 -28 85 -28 75 0 193 54 193 89 0 12
-92 16 -103 5z"/>
<path d="M1327 3014 c-4 -4 -7 -20 -7 -35 0 -22 -10 -34 -47 -59 -26 -18 -62
-34 -80 -37 -83 -14 -56 -62 36 -63 50 0 56 3 98 44 38 38 43 48 37 73 -12 49
-29 85 -37 77z"/>
<path d="M1275 2607 c-27 -11 -78 -23 -113 -26 -34 -3 -62 -10 -62 -16 0 -5
24 -16 52 -24 42 -11 65 -11 113 -2 33 7 90 17 128 23 37 7 67 15 67 20 0 10
-46 22 -58 15 -4 -3 -21 3 -38 14 -34 22 -26 22 -89 -4z"/>
<path d="M3478 353 c-22 -6 -24 -23 -2 -23 12 0 14 -8 9 -42 -3 -24 -7 -73 -8
-110 -1 -38 -5 -68 -9 -68 -5 0 -8 -5 -8 -11 0 -8 4 -8 14 0 10 9 16 8 25 -3
10 -11 8 -16 -6 -24 -10 -6 -14 -14 -10 -18 5 -5 12 -2 18 6 8 13 10 13 19 0
5 -8 12 -19 14 -25 3 -5 10 -2 16 8 12 19 35 23 45 7 4 -6 1 -18 -6 -26 -10
-12 -14 -12 -21 -2 -6 10 -10 10 -18 -2 -9 -13 -11 -13 -21 0 -8 11 -12 12
-16 3 -2 -7 -8 -13 -12 -13 -12 0 -79 150 -87 193 -3 20 -10 39 -14 42 -14 8
19 -116 45 -174 25 -54 32 -78 16 -52 -5 7 -14 10 -20 7 -28 -18 -4 -26 77
-26 l87 1 32 67 c21 43 34 86 36 120 2 29 9 58 15 64 20 20 14 35 -27 67 -31
25 -40 28 -44 16 -4 -8 -2 -17 3 -20 6 -4 10 -26 10 -50 0 -34 -5 -47 -20 -55
-15 -8 -21 -6 -29 9 -6 10 -8 21 -4 24 3 4 0 14 -8 23 -11 14 -11 18 5 30 17
12 17 13 -7 20 -15 3 -26 9 -25 13 3 30 -15 37 -64 24z"/>
</g>
</svg>
